<svg xmlns="http://www.w3.org/2000/svg" width="190" height="240" viewBox="0 0 50.3 63.5"><defs><linearGradient id="TA" x1="39.75" x2="47.7" y1="2.65" y2="10.6" gradientUnits="userSpaceOnUse"><stop stop-color="#e8b" offset="0"/><stop stop-color="#c69" offset="1"/></linearGradient><linearGradient id="TB" x1="31.8" x2="39.75" y1="10.6" y2="18.55" gradientUnits="userSpaceOnUse"><stop stop-color="#ddd" offset="0"/><stop stop-color="#bbb" offset="1"/></linearGradient></defs><path d="M14.6 0c-1.3 0-2.45.624-3.18 1.59v-.001l-1.85 1.85v50.5h37.3l1.85-1.85-.003.001c.965-.723 1.59-1.87 1.59-3.18v-45a3.96 3.96 0 0 0-3.97-3.97z" fill="url(#TA)"/><path d="M11.9 2.65c-1.3 0-2.45.625-3.18 1.59v-.002l-7.14 7.14v50.8h37l7.41-7.41h-.002c.964-.723 1.59-1.87 1.59-3.18v-45a3.96 3.96 0 0 0-3.97-3.97z" fill="url(#TB)"/><rect y="10.6" width="39.7" height="52.9" ry="3.97" fill="#eee"/><g transform='translate(0,10)'><path d="M29.4 41.9c-.397.185 1.77-1.8 1.38-1.77-1.98.291-5.87.106-6.67-.714-5.08-3.04-2.25-8.31-2.28-12.6-.503-.714-2.04.609-2.46.926-1.77 1.43-4.15 4.44-4.15 6.77-.027 2.25-.741 4.23-1.38 6.38-1.51-.079-1.01-3.89-2.46-2.28-1.35 1.56-3.2 4.39-5.74 4.37-1.51.026-2.06-1.3-2.65-2.43-1.01-2.04 4.66-9.34 3.81-10.3-.794-.106-1.46-.503-2.01-1.11-.318-1.35-1.51-1.93-1.11-3.57 1.03-.344 2.04.079 3.02-.132 1.56-.291 1.72-.926 3.31-1.01l1.4-.132c.423-2.09-.767-5.56-.767-8.49.661.053 1.48-1.88 1.93-1.51 1.61-.053 1.77.979 2.46 1.93 2.83 2.2.609 10.3.714 14.6 1.43-1.38 1.83-2.75 3.36-4.07.82-.688 1.77-1.24 2.49-2.06 1.01-1.16.635-3.49.741-4.89.185-2.25.423-4.63-.873-6.56-.132-1.16-1.67-1.9-.741-3.15 1.83.132 2.7 1.35 4.15 2.04.37.185.794.291 1.16.476 2.38.979-.159 7.43.106 9.31 1.16.952 4.23-2.33 5.48-2.73 1.75-.635 2.04.37 2.99 1.24.714 1.14.556 1.85-.185 2.65-.767.82-4.66 1.3-6.01 2.3-.9.688-1.75.741-2.91.344-.635 2.01-1.11 8.12.265 9.97 2.91 1.14 5.21-1.32 7.94-.609.847.238 1.38.9 2.2 1.24.794 1.08 1.01 1.56.714 2.99-3.47 2.88-3.44.9-7.22 2.65zM12.1 29c-.847.37-3.02 1.43-4.39 2.06-.688 1.24-3.57 5.34-3.23 6.75 1.75-.291 7.78-2.28 7.25-4.52.291-.556.344-.926.397-1.53-.079-.344.45-2.99-.027-2.75z" fill="#339"/></g></svg>