<svg xmlns="http://www.w3.org/2000/svg" width="190" height="240" viewBox="0 0 50.3 63.5"><defs><linearGradient id="TA" x1="39.75" x2="47.7" y1="2.65" y2="10.6" gradientUnits="userSpaceOnUse"><stop stop-color="#e8b" offset="0"/><stop stop-color="#c69" offset="1"/></linearGradient><linearGradient id="TB" x1="31.8" x2="39.75" y1="10.6" y2="18.55" gradientUnits="userSpaceOnUse"><stop stop-color="#ddd" offset="0"/><stop stop-color="#bbb" offset="1"/></linearGradient></defs><path d="M14.6 0c-1.3 0-2.45.624-3.18 1.59v-.001l-1.85 1.85v50.5h37.3l1.85-1.85-.003.001c.965-.723 1.59-1.87 1.59-3.18v-45a3.96 3.96 0 0 0-3.97-3.97z" fill="url(#TA)"/><path d="M11.9 2.65c-1.3 0-2.45.625-3.18 1.59v-.002l-7.14 7.14v50.8h37l7.41-7.41h-.002c.964-.723 1.59-1.87 1.59-3.18v-45a3.96 3.96 0 0 0-3.97-3.97z" fill="url(#TB)"/><rect y="10.6" width="39.7" height="52.9" ry="3.97" fill="#eee"/><g transform='translate(0,10)'><path d="M4.66 17.4c1.53.582 3.12 2.38 3.68 3.57.159.37.37.609.397.609.159 0 .318-.185.397-.556.979-2.49 1.06-2.7 9.21-6.32 0-1.43.053-2.75.106-3.18l.106-2.75c0-1.06.476-1.96-.794-2.59l-.952.291c.45-1.14 1.3-1.64 2.2-1.64 1.8 0 4.37 1.61 4.37 2.86 0 .132-.053.423-.159.794-.318 1.24-.397 2.38-.45 5.13 3.28-.873 6.38-1.56 7.09-1.56.873 0 2.3.609 4 1.64 1.38.873 2.04 1.64 2.04 2.38 0 .688.794.688-1.96 3.44-1.64 1.64-1.64 1.64-5.32 4.74.926.926 1.16 1.69 1.16 2.3 0 .37-.397.688-.926.688-.265 0-.926-.053-1.43-.079-.45-.079-1.19-.079-1.69-.079-1.22 0-1.77.079-3.47.45-.106.873-.159 2.75-.212 5.82 0 5.74-.767 11.6-1.4 13.6-.212.688-.45 1.06-.767 1.06-.397 0-.556-.318-.979-2.75-.397-2.25-.767-5.64-.767-17.3-.82.238-1.38.423-1.59.45-.714.238-1.11.45-1.83.635-.397.132-.714.185-.979.185-.45 0-.661-.079-1.8-.794-.159-.079-.318-.132-.37-.132-.106 0-.265.265-.265.45 0 .079.053.45.159.952.053.132.053.317.053.503 0 .609-.265.926-.767.926-.82 0-2.62-1.06-3.92-2.94-.82-1.06-.979-1.56-1.14-3.57-.159-2.12-.45-3.7-1.98-7.65a8.02 8.02 0 0 1 .952.344zm10.4 2.57c-.873.45-1.16.556-2.7.741-1.64.265-2.3 1.24-2.3 3.44 0 .926.106 1.48.609 2.43.503-.079.873-.185 1.03-.185l6.54-1.98c.053-1.51.053-2.88.053-3.49v-2.62c-1.03.423-1.88.873-1.88.926zm9.6 3.39c3.84-3.73 6.14-6.85 6.14-8.36 0-.45-.212-.688-.714-.688-1.03 0-2.65.556-7.46 2.3-.265 3.57-.318 4.18-.397 7.17 1.27-.185 1.22-.185 2.43-.423z" fill="#b32"/></g></svg>