<svg xmlns="http://www.w3.org/2000/svg" width="190" height="240" viewBox="0 0 50.3 63.5"><defs><linearGradient id="TA" x1="39.75" x2="47.7" y1="2.65" y2="10.6" gradientUnits="userSpaceOnUse"><stop stop-color="#e8b" offset="0"/><stop stop-color="#c69" offset="1"/></linearGradient><linearGradient id="TB" x1="31.8" x2="39.75" y1="10.6" y2="18.55" gradientUnits="userSpaceOnUse"><stop stop-color="#ddd" offset="0"/><stop stop-color="#bbb" offset="1"/></linearGradient></defs><path d="M14.6 0c-1.3 0-2.45.624-3.18 1.59v-.001l-1.85 1.85v50.5h37.3l1.85-1.85-.003.001c.965-.723 1.59-1.87 1.59-3.18v-45a3.96 3.96 0 0 0-3.97-3.97z" fill="url(#TA)"/><path d="M11.9 2.65c-1.3 0-2.45.625-3.18 1.59v-.002l-7.14 7.14v50.8h37l7.41-7.41h-.002c.964-.723 1.59-1.87 1.59-3.18v-45a3.96 3.96 0 0 0-3.97-3.97z" fill="url(#TB)"/><rect y="10.6" width="39.7" height="52.9" ry="3.97" fill="#eee"/><g transform='translate(0,10)'><path d="M31.7 4.03H8c-3.39 0-5.08 1.24-5.08 3.73v37.4c0 2.49 1.69 3.73 5.08 3.73h23.7c3.39 0 5.08-1.24 5.08-3.73V7.76c0-2.49-1.69-3.73-5.08-3.73zm2.59 41.1c0 1.64-.873 2.46-2.59 2.46H8c-1.72 0-2.59-.82-2.59-2.46V7.73c0-1.64.873-2.46 2.59-2.46h23.7c1.72 0 2.59.82 2.59 2.46zm-5.61-38.3h-17.6c-2.51 0-3.78 1.08-3.78 3.25v32.6c0 2.17 1.27 3.25 3.78 3.25h17.6c2.51 0 3.78-1.08 3.78-3.25v-32.6c0-2.17-1.27-3.25-3.78-3.25zm-19.6 3.25c0-1.43.635-2.14 1.93-2.14h1.16v1.27c0 1.43-.635 2.14-1.93 2.14H9.08zm3.1 34.8h-1.16c-1.27 0-1.93-.714-1.93-2.14v-1.27h1.16c1.27 0 1.93.714 1.93 2.14zm18.4-2.14c0 1.43-.635 2.14-1.93 2.14h-1.16v-1.27c0-1.43.635-2.14 1.93-2.14h1.16zm0-2.41h-1.16c-2.01 0-3.02 1.08-3.02 3.25v1.27H13.3v-1.27c0-2.17-1.01-3.25-3.02-3.25H9.12v-27.8h1.16c2.01 0 3.02-1.08 3.02-3.25V8.01h13.1v1.27c0 2.17 1.01 3.25 3.02 3.25h1.16zm0-28.9h-1.16c-1.27 0-1.93-.714-1.93-2.14V8.02h1.16c1.27 0 1.93.714 1.93 2.14z" fill="#339"/></g></svg>