<svg xmlns="http://www.w3.org/2000/svg" width="190" height="240" viewBox="0 0 50.3 63.5"><defs><linearGradient id="TA" x1="39.75" x2="47.7" y1="2.65" y2="10.6" gradientUnits="userSpaceOnUse"><stop stop-color="#e8b" offset="0"/><stop stop-color="#c69" offset="1"/></linearGradient><linearGradient id="TB" x1="31.8" x2="39.75" y1="10.6" y2="18.55" gradientUnits="userSpaceOnUse"><stop stop-color="#ddd" offset="0"/><stop stop-color="#bbb" offset="1"/></linearGradient></defs><path d="M14.6 0c-1.3 0-2.45.624-3.18 1.59v-.001l-1.85 1.85v50.5h37.3l1.85-1.85-.003.001c.965-.723 1.59-1.87 1.59-3.18v-45a3.96 3.96 0 0 0-3.97-3.97z" fill="url(#TA)"/><path d="M11.9 2.65c-1.3 0-2.45.625-3.18 1.59v-.002l-7.14 7.14v50.8h37l7.41-7.41h-.002c.964-.723 1.59-1.87 1.59-3.18v-45a3.96 3.96 0 0 0-3.97-3.97z" fill="url(#TB)"/><rect y="10.6" width="39.7" height="52.9" ry="3.97" fill="#eee"/><g transform='translate(0,10)'><path d="M22.808 5.895c.848-.212 1.272-.504 1.272-.848 0-.318-.424-.583-1.272-.822s-1.829-.371-2.995-.371-2.146.132-2.994.371c-.821.238-1.245.53-1.245.822 0 .344.424.636 1.245.848.053.026.133.026.239.053v7.632c-.106.026-.186.026-.239.053-.821.265-1.245.53-1.245.848 0 .344.424.636 1.245.848.053.027.133.027.239.053v7.632c-.106.027-.186.027-.239.053-.821.239-1.245.504-1.245.848s.424.636 1.245.848 1.829.318 2.994.318c1.14 0 2.146-.106 2.995-.318s1.272-.503 1.272-.848c0-.318-.424-.609-1.272-.848-.106-.026-.239-.079-.344-.079v-7.579c.106-.027.239-.08.345-.08.848-.212 1.272-.503 1.272-.848 0-.318-.424-.583-1.272-.848l-.344-.08V5.974c.106-.026.212-.079.345-.079zM21.642 24.26c-.53.106-1.113.159-1.802.159s-1.299-.053-1.802-.159-.742-.239-.742-.424c0-.159.265-.292.768-.424l.636-.106v-7.685c.345.026.716.026 1.139.026l1.193-.026v7.712l.609.08c.53.132.795.291.795.424-.026.185-.291.318-.795.424zm0-9.355c-.53.106-1.113.159-1.802.159s-1.299-.053-1.802-.159-.742-.238-.742-.424c0-.159.239-.292.742-.424s1.087-.186 1.802-.186c.689 0 1.272.053 1.802.186s.795.265.795.424c-.026.159-.291.318-.795.424zm0-9.434c-.186.053-.398.106-.609.106v7.764l-1.193-.053-1.139.027V5.603a3.97 3.97 0 0 1-.636-.106c-.503-.106-.768-.238-.768-.397s.239-.292.742-.424 1.087-.185 1.802-.185c.689 0 1.272.053 1.802.185s.795.265.795.424c-.026.159-.291.291-.795.371z" fill="#339" stroke="#339"/><path d="M22.808 30.275c.848-.212 1.272-.503 1.272-.848 0-.318-.424-.583-1.272-.822s-1.829-.371-2.995-.371-2.146.133-2.994.371c-.821.238-1.245.53-1.245.822 0 .345.424.636 1.245.848.053.027.133.027.239.053v7.632c-.106.026-.186.026-.239.053-.821.265-1.245.53-1.245.848 0 .345.424.636 1.245.848.053.027.133.027.239.053v7.632c-.106.026-.186.026-.239.053-.821.239-1.245.504-1.245.848s.424.636 1.245.848 1.829.318 2.994.318c1.14 0 2.146-.106 2.995-.318s1.272-.503 1.272-.848c0-.318-.424-.609-1.272-.848-.106-.026-.239-.079-.344-.079v-7.579c.106-.027.239-.08.345-.08.848-.212 1.272-.503 1.272-.848 0-.318-.424-.583-1.272-.848l-.344-.08v-7.579c.106-.053.212-.08.345-.08zm-1.166 18.364c-.53.106-1.113.159-1.802.159s-1.299-.053-1.802-.159-.742-.238-.742-.424c0-.159.265-.292.768-.424l.636-.106V40c.345.026.716.026 1.139.026L21.032 40v7.712l.609.079c.53.132.795.291.795.424-.026.185-.291.318-.795.424zm0-9.355c-.53.106-1.113.159-1.802.159s-1.299-.053-1.802-.159-.742-.238-.742-.424c0-.159.239-.291.742-.424s1.087-.185 1.802-.185c.689 0 1.272.053 1.802.185s.795.265.795.424c-.026.159-.291.318-.795.424zm0-9.434c-.186.053-.398.106-.609.106v7.738l-1.193-.053-1.139.027v-7.712a3.97 3.97 0 0 1-.636-.106c-.503-.106-.768-.238-.768-.397s.239-.292.742-.424 1.087-.186 1.802-.186c.689 0 1.272.053 1.802.186s.795.265.795.424c-.026.159-.291.291-.795.397z" fill="#084" stroke="#084"/></g></svg>