<svg xmlns="http://www.w3.org/2000/svg" xmlns:xlink="http://www.w3.org/1999/xlink" width="190" height="240" viewBox="0 0 50.3 63.5"><defs><linearGradient id="TA" x1="39.75" x2="47.7" y1="2.65" y2="10.6" gradientUnits="userSpaceOnUse"><stop stop-color="#e8b" offset="0"/><stop stop-color="#c69" offset="1"/></linearGradient><linearGradient id="TB" x1="31.8" x2="39.75" y1="10.6" y2="18.55" gradientUnits="userSpaceOnUse"><stop stop-color="#ddd" offset="0"/><stop stop-color="#bbb" offset="1"/></linearGradient></defs><path d="M14.6 0c-1.3 0-2.45.624-3.18 1.59v-.001l-1.85 1.85v50.5h37.3l1.85-1.85-.003.001c.965-.723 1.59-1.87 1.59-3.18v-45a3.96 3.96 0 0 0-3.97-3.97z" fill="url(#TA)"/><path d="M11.9 2.65c-1.3 0-2.45.625-3.18 1.59v-.002l-7.14 7.14v50.8h37l7.41-7.41h-.002c.964-.723 1.59-1.87 1.59-3.18v-45a3.96 3.96 0 0 0-3.97-3.97z" fill="url(#TB)"/><rect y="10.6" width="39.7" height="52.9" ry="3.97" fill="#eee"/><g transform='translate(0,10)'><defs><path id="A" d="M-136.8 481.6c3.2-.5 4.8-1.1 4.8-2 0-.8-1.6-1.4-4.8-2s-6.9-.8-11.3-.8-8.1.3-11.3.8c-3.1.6-4.7 1.2-4.7 2s1.6 1.5 4.7 2c.2.1.5.1.9.2V500c-.4.1-.7.1-.9.2-3.1.6-4.7 1.2-4.7 2s1.6 1.5 4.7 2.1c.2 0 .5 0 .9.1v18.2c-.4.1-.7.1-.9.2-3.1.6-4.7 1.2-4.7 2s1.6 1.5 4.7 2 6.9.8 11.3.8c4.3 0 8.1-.3 11.3-.8s4.8-1.2 4.8-2-1.6-1.4-4.8-2c-.4-.1-.9-.2-1.3-.2v-18.1c.4-.1.9-.2 1.3-.2 3.2-.6 4.8-1.2 4.8-2.1 0-.8-1.6-1.4-4.8-2-.4-.1-.9-.1-1.3-.2v-18.2c.4-.1.9-.2 1.3-.2zm-15.5-.7c0-1.4 1.5-2.1 4.4-2.1s4.4.7 4.4 2.1v18.5c-1.5-.1-3-.1-4.5-.1h-4.3v-18.4zm8.8 42.5c0 1.5-1.5 2.2-4.4 2.2s-4.4-.7-4.4-2.2v-18.5c1.3.1 2.7.1 4.3.1s3 0 4.5-.1v18.5zm2.3-20.2c-2 .3-4.2.4-6.8.4s-4.9-.1-6.8-.4-2.8-.6-2.8-1c0-.3.9-.7 2.8-1s4.1-.5 6.8-.5c2.6 0 4.8.2 6.8.5s3 .6 3 1-1 .7-3 1z"/><path id="B" d="M-136.8 420.6c3.2-.5 4.8-1.2 4.8-2.1 0-.7-1.6-1.3-4.8-1.9s-6.9-.9-11.3-.9-8.1.3-11.3.9c-3.1.6-4.7 1.2-4.7 1.9 0 .9 1.6 1.6 4.7 2.1.2.1.5.1.9.1V439c-.4 0-.7 0-.9.1-3.1.6-4.7 1.3-4.7 2.1s1.6 1.5 4.7 2c.2.1.5.1.9.1v18.3c-.4.1-.7.1-.9.1-3.1.6-4.7 1.2-4.7 2.1s1.6 1.5 4.7 2 6.9.7 11.3.7c4.3 0 8.1-.2 11.3-.7s4.8-1.1 4.8-2-1.6-1.5-4.8-2.1c-.4-.1-.9-.1-1.3-.2v-18.1c.4-.1.9-.1 1.3-.2 3.2-.5 4.8-1.1 4.8-2 0-.8-1.6-1.5-4.8-2.1-.4-.1-.9-.1-1.3-.2v-18.1c.4-.1.9-.1 1.3-.2zm-15.5-.7c0-1.4 1.5-2.1 4.4-2.1s4.4.7 4.4 2.1v18.5c-1.5-.1-3-.1-4.5-.1s-3 0-4.3.1v-18.5zm8.8 42.5c0 1.4-1.5 2.1-4.4 2.1s-4.4-.7-4.4-2.1v-18.5h8.8v18.5zm2.3-20.2c-2 .2-4.2.4-6.8.4s-4.9-.1-6.8-.4c-1.9-.2-2.8-.6-2.8-1s.9-.8 2.8-1.1 4.1-.5 6.8-.5c2.6 0 4.8.2 6.8.5s3 .7 3 1.1-1 .7-3 1z"/><path id="C" d="M-48.9 360.1c3.2-.5 4.8-1.2 4.8-2.1 0-.7-1.6-1.3-4.8-1.9s-6.9-.9-11.3-.9-8.1.3-11.3.9c-3.1.6-4.7 1.2-4.7 1.9 0 .9 1.6 1.6 4.7 2.1.2.1.5.1.9.1v18.3c-.4 0-.7 0-.9.1-3.1.6-4.7 1.3-4.7 2.1s1.6 1.5 4.7 2c.2.1.5.1.9.1v18.3c-.4.1-.7.1-.9.1-3.1.6-4.7 1.2-4.7 2.1s1.6 1.5 4.7 2 6.9.7 11.3.7c4.3 0 8.1-.2 11.3-.7s4.8-1.1 4.8-2-1.6-1.5-4.8-2.1c-.4-.1-.9-.1-1.3-.2v-18.1c.4-.1.9-.1 1.3-.2 3.2-.5 4.8-1.1 4.8-2 0-.8-1.6-1.5-4.8-2.1-.4-.1-.9-.1-1.3-.2v-18.1c.4-.1.9-.2 1.3-.2zm-15.5-.8c0-1.4 1.5-2.1 4.4-2.1s4.4.7 4.4 2.1v18.5c-1.5-.1-3-.1-4.5-.1s-3 0-4.3.1v-18.5zm8.8 42.6c0 1.4-1.5 2.1-4.4 2.1s-4.4-.7-4.4-2.1v-18.5h8.8v18.5zm2.3-20.2c-2 .2-4.2.4-6.8.4s-4.9-.1-6.8-.4c-1.9-.2-2.8-.6-2.8-1s.9-.8 2.8-1.1 4.1-.5 6.8-.5c2.6 0 4.8.2 6.8.5s3 .7 3 1.1-1 .7-3 1z"/></defs><g transform="matrix(.265 0 0 .265 47.4 -90.3)"><g fill="#084" stroke="#084" stroke-miterlimit="10" stroke-width="2"><use xlink:href="#A"/><use xlink:href="#B"/></g><g stroke-miterlimit="10" stroke-width="2"><path d="M-92.8 360c3.2-.5 4.8-1.2 4.8-2.1 0-.7-1.6-1.3-4.8-1.9s-6.9-.9-11.3-.9-8.1.3-11.3.9c-3.1.6-4.7 1.2-4.7 1.9 0 .9 1.6 1.6 4.7 2.1.2.1.5.1.9.1v18.3c-.4 0-.7 0-.9.1-3.1.6-4.7 1.3-4.7 2.1s1.6 1.5 4.7 2c.2.1.5.1.9.1V401c-.4.1-.7.1-.9.1-3.1.6-4.7 1.2-4.7 2.1s1.6 1.5 4.7 2 6.9.7 11.3.7c4.3 0 8.1-.2 11.3-.7s4.8-1.1 4.8-2-1.6-1.5-4.8-2.1c-.4-.1-.9-.1-1.3-.2v-18.1c.4-.1.9-.1 1.3-.2 3.2-.5 4.8-1.1 4.8-2 0-.8-1.6-1.5-4.8-2.1-.4-.1-.9-.1-1.3-.2v-18.1c.4-.1.8-.2 1.3-.2zm-15.5-.8c0-1.4 1.5-2.1 4.4-2.1s4.4.7 4.4 2.1v18.5c-1.5-.1-3-.1-4.5-.1s-3 0-4.3.1zm8.8 42.6c0 1.4-1.5 2.1-4.4 2.1s-4.4-.7-4.4-2.1v-18.5h8.8zm2.3-20.2c-2 .2-4.2.4-6.8.4s-4.9-.1-6.8-.4c-1.9-.2-2.8-.6-2.8-1s.9-.8 2.8-1.1 4.1-.5 6.8-.5c2.6 0 4.8.2 6.8.5s3 .7 3 1.1-1.1.7-3 1z" fill="#b32" stroke="#b32"/><use fill="#339" stroke="#339" xlink:href="#C"/><use x="-87.9" fill="#084" stroke="#084" xlink:href="#C"/><use x="87.9" fill="#339" stroke="#339" xlink:href="#B"/><path d="M-92.8 482c3.2-.5 4.8-1.1 4.8-2 0-.8-1.6-1.4-4.8-2s-6.9-.8-11.3-.8-8.1.3-11.3.8c-3.1.6-4.7 1.2-4.7 2s1.6 1.5 4.7 2c.2.1.5.1.9.2v18.2c-.4.1-.7.1-.9.2-3.1.6-4.7 1.2-4.7 2s1.6 1.5 4.7 2.1c.2 0 .5 0 .9.1V523c-.4.1-.7.1-.9.2-3.1.6-4.7 1.2-4.7 2s1.6 1.5 4.7 2 6.9.8 11.3.8c4.3 0 8.1-.3 11.3-.8s4.8-1.2 4.8-2-1.6-1.4-4.8-2c-.4-.1-.9-.2-1.3-.2v-18.1c.4-.1.9-.2 1.3-.2 3.2-.6 4.8-1.2 4.8-2.1 0-.8-1.6-1.4-4.8-2-.4-.1-.9-.1-1.3-.2v-18.2c.4-.1.8-.2 1.3-.2zm-15.5-.7c0-1.4 1.5-2.1 4.4-2.1s4.4.7 4.4 2.1v18.5c-1.5-.1-3-.1-4.5-.1h-4.3zm8.8 42.5c0 1.5-1.5 2.2-4.4 2.2s-4.4-.7-4.4-2.2v-18.5c1.3.1 2.7.1 4.3.1s3 0 4.5-.1zm2.3-20.2c-2 .3-4.2.4-6.8.4s-4.9-.1-6.8-.4-2.8-.6-2.8-1c0-.3.9-.7 2.8-1s4.1-.5 6.8-.5c2.6 0 4.8.2 6.8.5s3 .6 3 1c-.1.4-1.1.7-3 1z" fill="#b32" stroke="#b32"/><use x="87.9" fill="#339" stroke="#339" xlink:href="#A"/><path d="M-92.8 421c3.2-.5 4.8-1.2 4.8-2.1 0-.7-1.6-1.3-4.8-1.9s-6.9-.9-11.3-.9-8.1.3-11.3.9c-3.1.6-4.7 1.2-4.7 1.9 0 .9 1.6 1.6 4.7 2.1.2.1.5.1.9.1v18.3c-.4 0-.7 0-.9.1-3.1.6-4.7 1.3-4.7 2.1s1.6 1.5 4.7 2c.2.1.5.1.9.1V462c-.4.1-.7.1-.9.1-3.1.6-4.7 1.2-4.7 2.1s1.6 1.5 4.7 2 6.9.7 11.3.7c4.3 0 8.1-.2 11.3-.7s4.8-1.1 4.8-2-1.6-1.5-4.8-2.1c-.4-.1-.9-.1-1.3-.2v-18.1c.4-.1.9-.1 1.3-.2 3.2-.5 4.8-1.1 4.8-2 0-.8-1.6-1.5-4.8-2.1-.4-.1-.9-.1-1.3-.2v-18.1c.4-.1.8-.1 1.3-.2zm-15.5-.7c0-1.4 1.5-2.1 4.4-2.1s4.4.7 4.4 2.1v18.5c-1.5-.1-3-.1-4.5-.1s-3 0-4.3.1zm8.8 42.5c0 1.4-1.5 2.1-4.4 2.1s-4.4-.7-4.4-2.1v-18.5h8.8zm2.3-20.2c-2 .2-4.2.4-6.8.4s-4.9-.1-6.8-.4c-1.9-.2-2.8-.6-2.8-1s.9-.8 2.8-1.1 4.1-.5 6.8-.5c2.6 0 4.8.2 6.8.5s3 .7 3 1.1-1.1.7-3 1z" fill="#b32" stroke="#b32"/></g></g></g></svg>