<svg xmlns="http://www.w3.org/2000/svg" width="190" height="240" viewBox="0 0 50.3 63.5"><defs><linearGradient id="TA" x1="39.75" x2="47.7" y1="2.65" y2="10.6" gradientUnits="userSpaceOnUse"><stop stop-color="#e8b" offset="0"/><stop stop-color="#c69" offset="1"/></linearGradient><linearGradient id="TB" x1="31.8" x2="39.75" y1="10.6" y2="18.55" gradientUnits="userSpaceOnUse"><stop stop-color="#ddd" offset="0"/><stop stop-color="#bbb" offset="1"/></linearGradient></defs><path d="M14.6 0c-1.3 0-2.45.624-3.18 1.59v-.001l-1.85 1.85v50.5h37.3l1.85-1.85-.003.001c.965-.723 1.59-1.87 1.59-3.18v-45a3.96 3.96 0 0 0-3.97-3.97z" fill="url(#TA)"/><path d="M11.9 2.65c-1.3 0-2.45.625-3.18 1.59v-.002l-7.14 7.14v50.8h37l7.41-7.41h-.002c.964-.723 1.59-1.87 1.59-3.18v-45a3.96 3.96 0 0 0-3.97-3.97z" fill="url(#TB)"/><rect y="10.6" width="39.7" height="52.9" ry="3.97" fill="#eee"/><g transform='translate(0,10)'><g transform="matrix(1.32 0 0 1.32 47.4 -90.2)"><g fill="none"><path d="M-8.4 88.5c0 6.9-5.6 12.5-12.5 12.5s-12.5-5.6-12.5-12.5S-27.8 76-20.9 76-8.4 81.6-8.4 88.5z" stroke="#339" stroke-width="1.38"/><g stroke="#084"><path d="m-10.3 88.5c0 5.8-4.7 10.6-10.6 10.6a10.5 10.5 0 0 1-10.6-10.6c0-5.8 4.7-10.6 10.6-10.6s10.6 4.8 10.6 10.6z" stroke-width="1.63"/><path d="m-20.9 78v3.6m-10.5 6.9h3.6m6.9 10.5v-3.6m10.5-6.9h-3.6m-14.3-7.4 2.5 2.5m-2.5 12.4 2.5-2.5m12.3 2.5-2.5-2.5m2.5-12.4-2.5 2.5m-8.9-4.8 1.4 3.3m-7.1 10.5 3.3-1.4m10.4 7-1.4-3.3m7.1-10.4-3.3 1.4m-16.1-1.4 3.3 1.4m2.4 12.3 1.4-3.3m12.3-2.3-3.3-1.4m-2.4-12.4-1.4 3.3" stroke-width="1.5"/></g></g><path d="m-13.5 88.5c0 4.1-3.3 7.4-7.4 7.4s-7.4-3.3-7.4-7.4 3.3-7.4 7.4-7.4 7.4 3.4 7.4 7.4z" fill="#b32" stroke="#084" stroke-width="1.5"/><path d="M-21.2 88.8s-.141 1.7-1.34 2.9c-1.13 1.13-2.9 1.34-2.9 1.34s.141-1.7 1.34-2.9c1.13-1.13 2.9-1.34 2.9-1.34zm.495-.495s.141-1.7 1.34-2.9c1.13-1.13 2.9-1.34 2.9-1.34s-.141 1.7-1.34 2.9c-1.13 1.13-2.9 1.34-2.9 1.34zm0 .566s1.7.141 2.9 1.34 1.34 2.9 1.34 2.9-1.7-.141-2.9-1.34-1.34-2.9-1.34-2.9zm-.566-.566s-1.7-.141-2.9-1.34-1.34-2.9-1.34-2.9 1.7.141 2.9 1.34 1.34 2.9 1.34 2.9z" fill="#eee"/></g></g></svg>