<svg xmlns="http://www.w3.org/2000/svg" xmlns:xlink="http://www.w3.org/1999/xlink" width="190" height="240" viewBox="0 0 50.3 63.5"><defs><linearGradient id="TA" x1="39.75" x2="47.7" y1="2.65" y2="10.6" gradientUnits="userSpaceOnUse"><stop stop-color="#e8b" offset="0"/><stop stop-color="#c69" offset="1"/></linearGradient><linearGradient id="TB" x1="31.8" x2="39.75" y1="10.6" y2="18.55" gradientUnits="userSpaceOnUse"><stop stop-color="#ddd" offset="0"/><stop stop-color="#bbb" offset="1"/></linearGradient></defs><path d="M14.6 0c-1.3 0-2.45.624-3.18 1.59v-.001l-1.85 1.85v50.5h37.3l1.85-1.85-.003.001c.965-.723 1.59-1.87 1.59-3.18v-45a3.96 3.96 0 0 0-3.97-3.97z" fill="url(#TA)"/><path d="M11.9 2.65c-1.3 0-2.45.625-3.18 1.59v-.002l-7.14 7.14v50.8h37l7.41-7.41h-.002c.964-.723 1.59-1.87 1.59-3.18v-45a3.96 3.96 0 0 0-3.97-3.97z" fill="url(#TB)"/><rect y="10.6" width="39.7" height="52.9" ry="3.97" fill="#eee"/><g transform='translate(0,10)'><defs><path id="A" d="m-70.4 402c0 18.4-14.9 33.3-33.4 33.3s-33.4-14.9-33.4-33.3 14.9-33.3 33.4-33.3 33.4 14.9 33.4 33.3z"/><path id="B" d="M-105 404s-.704 7.74-5.98 13-13 5.98-13 5.98.704-7.74 5.98-13 13-5.98 13-5.98zm2.46-2.46s.704-7.74 5.98-13 13-5.98 13-5.98-.704 7.74-5.98 13-13 5.98-13 5.98zm0 2.11s7.74.703 13 5.98 5.98 13 5.98 13-7.74-.703-13-5.98-5.98-13-5.98-13zm-2.46-2.46s-7.74-.703-13-5.98-5.98-13-5.98-13 7.74.703 13 5.98 5.98 13 5.98 13z"/></defs><g transform="matrix(.265 0 0 .265 47.3 -90.2)"><use fill="#339" xlink:href="#A"/><use fill="#eee" xlink:href="#B"/><use y="77.566" fill="#084" xlink:href="#A"/><use y="77.566" fill="#eee" xlink:href="#B"/></g></g></svg>