<svg xmlns="http://www.w3.org/2000/svg" xmlns:xlink="http://www.w3.org/1999/xlink" width="190" height="240" viewBox="0 0 50.3 63.5"><defs><linearGradient id="TA" x1="39.75" x2="47.7" y1="2.65" y2="10.6" gradientUnits="userSpaceOnUse"><stop stop-color="#e8b" offset="0"/><stop stop-color="#c69" offset="1"/></linearGradient><linearGradient id="TB" x1="31.8" x2="39.75" y1="10.6" y2="18.55" gradientUnits="userSpaceOnUse"><stop stop-color="#ddd" offset="0"/><stop stop-color="#bbb" offset="1"/></linearGradient></defs><path d="M14.6 0c-1.3 0-2.45.624-3.18 1.59v-.001l-1.85 1.85v50.5h37.3l1.85-1.85-.003.001c.965-.723 1.59-1.87 1.59-3.18v-45a3.96 3.96 0 0 0-3.97-3.97z" fill="url(#TA)"/><path d="M11.9 2.65c-1.3 0-2.45.625-3.18 1.59v-.002l-7.14 7.14v50.8h37l7.41-7.41h-.002c.964-.723 1.59-1.87 1.59-3.18v-45a3.96 3.96 0 0 0-3.97-3.97z" fill="url(#TB)"/><rect y="10.6" width="39.7" height="52.9" ry="3.97" fill="#eee"/><g transform='translate(0,10)'><defs><path id="A" d="m-21.1 98.5a6.7 6.7 0 1 1-6.7-6.7c3.7 0 6.7 2.9 6.7 6.7z"/><path id="B" d="m-63.6 46.1s-1.2 1-2.7 1-2.7-1-2.7-1 1.2-1 2.7-1 2.7 1 2.7 1z"/><path id="C" d="m-62.9 46.1s1.2-1 2.7-1 2.7 1 2.7 1-1.2 1-2.7 1-2.7-1-2.7-1z"/><path id="D" d="m-63.3 46.5s1 1.2 1 2.7-1 2.7-1 2.7-1-1.2-1-2.7 1-2.7 1-2.7z"/><path id="E" d="m-63.3 45.8s-1-1.2-1-2.7 1-2.7 1-2.7 1 1.2 1 2.7c0 1.4-1 2.7-1 2.7z"/></defs><g transform="matrix(.263 0 0 .265 46.8 -89.9)"><g transform="matrix(4.25 0 0 4.26 13.1 21.4)"><use fill="#b32" xlink:href="#A"/><g transform="rotate(315 17.6 29.5)" fill="#eee"><use xlink:href="#B"/><use xlink:href="#C"/><use xlink:href="#D"/><use xlink:href="#E"/></g></g><g transform="matrix(4.25 0 0 4.26 -22 -31.9)"><use fill="#339" xlink:href="#A"/><g transform="rotate(315 17.6 29.5)" fill="#eee"><use xlink:href="#B"/><use xlink:href="#C"/><use xlink:href="#D"/><use xlink:href="#E"/></g></g><g transform="matrix(4.25 0 0 4.26 52.8 71.2)"><use fill="#084" xlink:href="#A"/><g transform="rotate(315 17.6 29.5)" fill="#eee"><use xlink:href="#B"/><use xlink:href="#C"/><use xlink:href="#D"/><use xlink:href="#E"/></g></g></g></g></svg>