<svg xmlns="http://www.w3.org/2000/svg" xmlns:xlink="http://www.w3.org/1999/xlink" width="190" height="240" viewBox="0 0 50.3 63.5"><defs><linearGradient id="TA" x1="39.75" x2="47.7" y1="2.65" y2="10.6" gradientUnits="userSpaceOnUse"><stop stop-color="#e8b" offset="0"/><stop stop-color="#c69" offset="1"/></linearGradient><linearGradient id="TB" x1="31.8" x2="39.75" y1="10.6" y2="18.55" gradientUnits="userSpaceOnUse"><stop stop-color="#ddd" offset="0"/><stop stop-color="#bbb" offset="1"/></linearGradient></defs><path d="M14.6 0c-1.3 0-2.45.624-3.18 1.59v-.001l-1.85 1.85v50.5h37.3l1.85-1.85-.003.001c.965-.723 1.59-1.87 1.59-3.18v-45a3.96 3.96 0 0 0-3.97-3.97z" fill="url(#TA)"/><path d="M11.9 2.65c-1.3 0-2.45.625-3.18 1.59v-.002l-7.14 7.14v50.8h37l7.41-7.41h-.002c.964-.723 1.59-1.87 1.59-3.18v-45a3.96 3.96 0 0 0-3.97-3.97z" fill="url(#TB)"/><rect y="10.6" width="39.7" height="52.9" ry="3.97" fill="#eee"/><g transform='translate(0,10)'><defs><path id="A" d="m-27.5 110a6.7 6.7 0 1 1-13.4 0 6.7 6.7 0 1 1 13.4 0z"/><path id="B" d="m-76.3 49.8s-1.2 1-2.7 1-2.7-1-2.7-1 1.2-1 2.7-1 2.7 1 2.7 1z"/><path id="C" d="m-75.6 49.8s1.2-1 2.7-1 2.7 1 2.7 1-1.2 1-2.7 1-2.7-1-2.7-1z"/><path id="D" d="m-75.9 50.2s1 1.2 1 2.7-1 2.7-1 2.7-1-1.2-1-2.7 1-2.7 1-2.7z"/><path id="E" d="m-75.9 49.5s-1-1.2-1-2.7 1-2.7 1-2.7 1 1.2 1 2.7-1 2.7-1 2.7z"/></defs><g transform="matrix(1.32 0 0 1.32 103 -91.7)"><g transform="matrix(.744 0 0 .744 -31.9 8.74)"><use fill="#b32" xlink:href="#A"/><g transform="rotate(315 17.6 29.5)" fill="#eee"><use xlink:href="#B"/><use xlink:href="#C"/><use xlink:href="#D"/><use xlink:href="#E"/></g></g><g transform="matrix(.744 0 0 .744 -43.4 8.74)"><use fill="#b32" xlink:href="#A"/><g transform="rotate(315 17.6 29.5)" fill="#eee"><use xlink:href="#B"/><use xlink:href="#C"/><use xlink:href="#D"/><use xlink:href="#E"/></g></g><g transform="matrix(.744 0 0 .744 -31.9 19.5)"><use fill="#b32" xlink:href="#A"/><g transform="rotate(315 17.6 29.5)" fill="#eee"><use xlink:href="#B"/><use xlink:href="#C"/><use xlink:href="#D"/><use xlink:href="#E"/></g></g><g transform="matrix(.744 0 0 .744 -43.4 19.5)"><use fill="#b32" xlink:href="#A"/><g transform="rotate(315 17.6 29.5)" fill="#eee"><use xlink:href="#B"/><use xlink:href="#C"/><use xlink:href="#D"/><use xlink:href="#E"/></g></g><g transform="matrix(.744 0 0 .744 -31.9 -2.06)"><use y="-2.1" fill="#084" xlink:href="#A"/><g transform="rotate(315 17.6 29.5)" fill="#eee"><use x="1.5" y="-1.5" xlink:href="#B"/><use x="1.5" y="-1.5" xlink:href="#C"/><use x="1.5" y="-1.6" xlink:href="#D"/><use x="1.5" y="-1.6" xlink:href="#E"/></g></g><g transform="matrix(.744 0 0 .744 -43.4 -2.06)"><path d="M-27.5 108a6.7 6.7 0 1 1-6.7-6.7c3.7-.1 6.7 3 6.7 6.7z" fill="#084"/><g transform="rotate(315 17.6 29.5)" fill="#eee"><use x="1.5" y="-1.5" xlink:href="#B"/><use x="1.5" y="-1.5" xlink:href="#C"/><use x="1.5" y="-1.6" xlink:href="#D"/><use x="1.5" y="-1.6" xlink:href="#E"/></g></g></g></g></svg>