<svg xmlns="http://www.w3.org/2000/svg" xmlns:xlink="http://www.w3.org/1999/xlink" width="190" height="240" viewBox="0 0 50.3 63.5"><defs><linearGradient id="TA" x1="39.75" x2="47.7" y1="2.65" y2="10.6" gradientUnits="userSpaceOnUse"><stop stop-color="#e8b" offset="0"/><stop stop-color="#c69" offset="1"/></linearGradient><linearGradient id="TB" x1="31.8" x2="39.75" y1="10.6" y2="18.55" gradientUnits="userSpaceOnUse"><stop stop-color="#ddd" offset="0"/><stop stop-color="#bbb" offset="1"/></linearGradient></defs><path d="M14.6 0c-1.3 0-2.45.624-3.18 1.59v-.001l-1.85 1.85v50.5h37.3l1.85-1.85-.003.001c.965-.723 1.59-1.87 1.59-3.18v-45a3.96 3.96 0 0 0-3.97-3.97z" fill="url(#TA)"/><path d="M11.9 2.65c-1.3 0-2.45.625-3.18 1.59v-.002l-7.14 7.14v50.8h37l7.41-7.41h-.002c.964-.723 1.59-1.87 1.59-3.18v-45a3.96 3.96 0 0 0-3.97-3.97z" fill="url(#TB)"/><rect y="10.6" width="39.7" height="52.9" ry="3.97" fill="#eee"/><g transform='translate(0,10)'><defs><path id="A" d="m-40.4 129a6.7 6.7 0 1 1-13.4 0 6.7 6.7 0 1 1 13.4 0z"/><path id="B" d="m-98.6 53.7s-1.2 1-2.7 1-2.7-1-2.7-1 1.2-1 2.7-1 2.7 1 2.7 1z"/><path id="C" d="m-97.9 53.7s1.2-1 2.7-1 2.7 1 2.7 1-1.2 1-2.7 1c-1.4 0-2.7-1-2.7-1z"/><path id="D" d="m-98.2 54.1s1 1.2 1 2.7-1 2.7-1 2.7-1-1.2-1-2.7 1-2.7 1-2.7z"/><path id="E" d="m-98.2 53.4s-1-1.2-1-2.7 1-2.7 1-2.7 1 1.2 1 2.7-1 2.7-1 2.7z"/><path id="F" d="M-40.4 129a6.7 6.7 0 1 1-6.7-6.7c3.7-.1 6.7 3 6.7 6.7z"/></defs><g transform="matrix(1.32 0 0 1.32 98.9 -87.1)"><g transform="matrix(.595 0 0 .595 -32 9.51)"><use fill="#b32" xlink:href="#A"/><g transform="rotate(315 17.6 29.5)" fill="#eee"><use xlink:href="#B"/><use xlink:href="#C"/><use xlink:href="#D"/><use xlink:href="#E"/></g></g><g transform="matrix(.595 0 0 .595 -23 9.51)"><use fill="#b32" xlink:href="#A"/><g transform="rotate(315 17.6 29.5)" fill="#eee"><use xlink:href="#B"/><use xlink:href="#C"/><use xlink:href="#D"/><use xlink:href="#E"/></g></g><g transform="matrix(.595 0 0 .595 -41 9.51)"><use fill="#b32" xlink:href="#F"/><g transform="rotate(315 17.6 29.5)" fill="#eee"><use xlink:href="#B"/><use xlink:href="#C"/><use xlink:href="#D"/><use xlink:href="#E"/></g></g><g transform="matrix(.595 0 0 .595 -32 -1.99)"><use fill="#339" xlink:href="#A"/><g transform="rotate(315 17.6 29.5)" fill="#eee"><use xlink:href="#B"/><use xlink:href="#C"/><use xlink:href="#D"/><use xlink:href="#E"/></g></g><g transform="matrix(.595 0 0 .595 -23 -1.99)"><use fill="#339" xlink:href="#A"/><g transform="rotate(315 17.6 29.5)" fill="#eee"><use xlink:href="#B"/><use xlink:href="#C"/><use xlink:href="#D"/><use xlink:href="#E"/></g></g><g transform="matrix(.595 0 0 .595 -41 -1.99)"><use fill="#339" xlink:href="#F"/><g transform="rotate(315 17.6 29.5)" fill="#eee"><use xlink:href="#B"/><use xlink:href="#C"/><use xlink:href="#D"/><use xlink:href="#E"/></g></g><g transform="matrix(.595 0 0 .595 -32 21)"><use fill="#084" xlink:href="#A"/><g transform="rotate(315 17.6 29.5)" fill="#eee"><use xlink:href="#B"/><use xlink:href="#C"/><use xlink:href="#D"/><use xlink:href="#E"/></g></g><g transform="matrix(.595 0 0 .595 -23 21)"><use fill="#084" xlink:href="#A"/><g transform="rotate(315 17.6 29.5)" fill="#eee"><use xlink:href="#B"/><use xlink:href="#C"/><use xlink:href="#D"/><use xlink:href="#E"/></g></g><g transform="matrix(.595 0 0 .595 -41 21)"><use fill="#084" xlink:href="#F"/><g transform="rotate(315 17.6 29.5)" fill="#eee"><use xlink:href="#B"/><use xlink:href="#C"/><use xlink:href="#D"/><use xlink:href="#E"/></g></g></g></g></svg>